<?xml version="1.0" encoding="UTF-8" standalone="no"?><svg xmlns:svg="http://www.w3.org/2000/svg" xmlns="http://www.w3.org/2000/svg" xmlns:xlink="http://www.w3.org/1999/xlink" version="1.0" width="256px" height="256px" viewBox="0 0 128 128" xml:space="preserve" fill="#0a0f1c"><rect x="0" y="0" width="100%" height="100%" /><linearGradient id="linear-gradient" gradientTransform="rotate(90)"><stop offset="0%" stop-color="#b9c8ff"/><stop offset="100%" stop-color="#9bb0ff"/></linearGradient><circle fill="#eff2ff" cx="64" cy="64" r="64" class="cls-1"/><circle fill="url(#linear-gradient)" cx="63.94" cy="64.06" r="38.19" class="cls-3"/><path fill="#ffffff" d="M83.5 81.54l-.28.26a2.5 2.5 0 0 1-3.53 0l-9.5-9.48A14.7 14.7 0 1 1 74 68.5l9.5 9.5a2.5 2.5 0 0 1 0 3.54zM61.74 50.2A10.06 10.06 0 1 0 71.8 60.24 10.06 10.06 0 0 0 61.76 50.2z" class="cls-4"/><g><path fill="#9bb0ff" d="M127.77 64l-12.02 12.02L103.73 64H111a46.9 46.9 0 0 0-46.88-46.77H64V6.8A57.2 57.2 0 0 1 121.2 64" data-name="Shape 1 copy" class="cls-2"/><animateTransform attributeName="transform" type="rotate" from="0 64 64" to="360 64 64" dur="1620ms" repeatCount="indefinite"></animateTransform></g></svg>